<svg width="252" height="150" viewBox="0 0 252 150" fill="none" xmlns="http://www.w3.org/2000/svg">
<path fill-rule="evenodd" clip-rule="evenodd" d="M64.516 83.1837C64.516 86.2037 66.6737 86.5563 68.5956 86.5563C77.067 86.5563 79.8494 80.1649 79.8494 74.32C79.8494 66.9869 75.1434 61.6931 67.5745 61.6931C65.9673 61.6931 65.223 61.8104 64.516 61.8501V83.1837ZM60.6735 64.7913C60.6735 61.2628 58.8287 61.4969 57.0645 61.4578V60.4385C58.5951 60.5161 60.1621 60.5161 61.6922 60.5161C63.3397 60.5161 65.5739 60.4385 68.4776 60.4385C78.6357 60.4385 84.1636 67.2222 84.1636 74.1641C84.1636 78.0458 81.8897 87.812 68.0048 87.812C66.0064 87.812 64.1634 87.7338 62.3209 87.7338C60.5555 87.7338 58.8287 87.7741 57.0645 87.812V86.7922C59.4189 86.5563 60.5555 86.4775 60.6735 83.8113V64.7913Z" fill="#FE5000"/>
<path fill-rule="evenodd" clip-rule="evenodd" d="M89.4243 67.1173C88.405 67.1173 87.5036 66.1756 87.5036 65.1569C87.5036 64.1761 88.443 63.2742 89.4243 63.2742C90.4448 63.2742 91.3468 64.0968 91.3468 65.1569C91.3468 66.2159 90.4828 67.1173 89.4243 67.1173ZM85.228 86.792H85.9741C87.0728 86.792 87.8557 86.792 87.8557 85.4977V74.8691C87.8557 73.1434 87.2684 72.9082 85.8176 72.1241V71.4971C87.659 70.9478 89.8558 70.2034 90.0122 70.0855C90.2872 69.9279 90.523 69.8899 90.7192 69.8899C90.9148 69.8899 90.9936 70.124 90.9936 70.4387V85.4977C90.9936 86.792 91.8564 86.792 92.9551 86.792H93.6207V87.8118C92.2867 87.8118 90.9148 87.7336 89.5037 87.7336C88.0921 87.7336 86.6799 87.7739 85.228 87.8118V86.792Z" fill="#FE5000"/>
<path fill-rule="evenodd" clip-rule="evenodd" d="M94.9902 86.7918H96.0487C97.1468 86.7918 97.9314 86.7918 97.9314 85.4975V74.4772C97.9314 73.2618 96.4807 73.0271 95.8899 72.7119V72.124C98.7551 70.9091 100.323 69.8898 100.677 69.8898C100.911 69.8898 101.03 70.006 101.03 70.3994V73.9279H101.107C102.087 72.3984 103.735 69.8898 106.127 69.8898C107.108 69.8898 108.362 70.5559 108.362 71.9675C108.362 73.0271 107.617 73.967 106.519 73.967C105.304 73.967 105.304 73.0271 103.932 73.0271C103.264 73.0271 101.069 73.9279 101.069 76.2806V85.4975C101.069 86.7918 101.852 86.7918 102.951 86.7918H105.147V87.8117C102.99 87.7737 101.343 87.7335 99.6565 87.7335C98.0493 87.7335 96.4013 87.7737 94.9902 87.8117V86.7918Z" fill="#FE5000"/>
<path fill-rule="evenodd" clip-rule="evenodd" d="M118.797 75.7318C119.777 75.7318 119.896 75.2222 119.896 74.7522C119.896 72.7515 118.68 71.1432 116.483 71.1432C114.091 71.1432 112.443 72.908 111.974 75.7318H118.797ZM111.857 76.987C111.778 77.3396 111.778 77.9286 111.857 79.2632C112.091 82.9867 114.484 86.0469 117.62 86.0469C119.777 86.0469 121.463 84.8694 122.915 83.4192L123.464 83.9686C121.66 86.3592 119.424 88.4007 116.208 88.4007C109.972 88.4007 108.719 82.3597 108.719 79.8511C108.719 72.1631 113.895 69.8898 116.641 69.8898C119.818 69.8898 123.228 71.8887 123.267 76.0465C123.267 76.2806 123.267 76.5164 123.228 76.7511L122.876 76.987H111.857Z" fill="#FE5000"/>
<path fill-rule="evenodd" clip-rule="evenodd" d="M139.854 84.32C137.933 86.556 135.306 88.4007 132.207 88.4007C128.13 88.4007 124.403 84.4391 124.403 80.2813C124.403 74.594 128.482 69.8898 134.13 69.8898C136.13 69.8898 139.423 70.5156 139.423 72.5951C139.423 73.4965 138.874 74.3196 137.933 74.3196C136.285 74.3196 136.364 71.1432 132.678 71.1432C129.307 71.1432 127.541 74.9087 127.541 77.8884C127.541 81.9294 130.13 85.4975 134.404 85.4975C136.404 85.4975 137.699 84.7912 139.189 83.6551L139.854 84.32Z" fill="#FE5000"/>
<path fill-rule="evenodd" clip-rule="evenodd" d="M145.93 82.9869C145.93 85.5766 147.344 86.2819 148.403 86.2819C149.462 86.2819 150.246 85.9293 151.148 85.1441L151.735 85.7325C150.363 87.1447 148.637 88.401 146.52 88.401C144.009 88.401 142.795 87.0653 142.795 84.7518V72.5954H140.206V71.9678C142.245 70.3997 143.461 69.6536 145.461 66.4778H145.93V70.4768H151.775V72.5954H145.93V82.9869Z" fill="#FE5000"/>
<path fill-rule="evenodd" clip-rule="evenodd" d="M165.191 61.6931C164.21 61.6931 163.544 61.8104 162.837 61.9283V73.4192C163.425 73.5359 164.249 73.6159 164.914 73.6159C169.74 73.6159 171.621 70.4389 171.621 67.6139C171.621 64.2028 169.818 61.6931 165.191 61.6931ZM162.837 74.8693V83.9689C162.837 86.7133 164.328 86.753 166.406 86.7922V87.812C164.525 87.812 162.837 87.7338 161.112 87.7338C159.229 87.7338 157.386 87.7741 155.425 87.812V86.7922C157.386 86.9101 158.994 86.3998 158.994 84.1645V64.2816C158.994 61.5366 157.504 61.4969 155.425 61.4578V60.4385C157.583 60.477 159.464 60.5161 161.387 60.5161C162.76 60.5161 164.132 60.4385 166.641 60.4385C174.054 60.4385 175.701 64.5945 175.701 67.3792C175.701 70.7133 173.191 73.1827 170.132 74.0853C173.701 79.3021 175.584 82.44 177.269 84.3204C178.524 85.7326 179.701 86.7922 181.7 86.7922V87.812C180.721 87.812 179.74 87.7338 178.76 87.7338C177.662 87.7338 176.524 87.7741 175.426 87.812C171.856 83.8901 169.231 79.3021 166.406 74.8693H162.837Z" fill="#FE5000"/>
<path fill-rule="evenodd" clip-rule="evenodd" d="M190.369 75.7318C191.351 75.7318 191.468 75.2222 191.468 74.7522C191.468 72.7515 190.253 71.1432 188.056 71.1432C185.663 71.1432 184.017 72.908 183.545 75.7318H190.369ZM183.429 76.987C183.35 77.3396 183.35 77.9286 183.429 79.2632C183.665 82.9867 186.055 86.0469 189.193 86.0469C191.351 86.0469 193.037 84.8694 194.488 83.4192L195.038 83.9686C193.234 86.3592 190.996 88.4007 187.782 88.4007C181.545 88.4007 180.292 82.3597 180.292 79.8511C180.292 72.1631 185.468 69.8898 188.214 69.8898C191.389 69.8898 194.801 71.8887 194.841 76.0465C194.841 76.2806 194.841 76.5164 194.801 76.7511L194.447 76.987H183.429Z" fill="#FE5000"/>
<path fill-rule="evenodd" clip-rule="evenodd" d="M195.889 86.792H196.634C197.732 86.792 198.515 86.792 198.515 85.4978V63.6539C198.515 61.1039 197.928 61.0263 196.439 60.5948V59.9661C198.006 59.4576 199.654 58.7506 200.477 58.2818C200.908 58.0454 201.222 57.8492 201.34 57.8492C201.574 57.8492 201.653 58.0845 201.653 58.3974V85.4978C201.653 86.792 202.515 86.792 203.615 86.792H204.281V87.8119C202.947 87.8119 201.574 87.7337 200.163 87.7337C198.752 87.7337 197.34 87.774 195.889 87.8119V86.792Z" fill="#FE5000"/>
<path fill-rule="evenodd" clip-rule="evenodd" d="M210.081 67.1173C209.062 67.1173 208.16 66.1756 208.16 65.1569C208.16 64.1761 209.101 63.2742 210.081 63.2742C211.102 63.2742 212.003 64.0968 212.003 65.1569C212.003 66.2159 211.14 67.1173 210.081 67.1173ZM205.885 86.792H206.629C207.729 86.792 208.512 86.792 208.512 85.4977V74.8691C208.512 73.1434 207.925 72.9082 206.474 72.1241V71.4971C208.316 70.9478 210.512 70.2034 210.67 70.0855C210.944 69.9279 211.18 69.8899 211.375 69.8899C211.57 69.8899 211.649 70.124 211.649 70.4387V85.4977C211.649 86.792 212.511 86.792 213.611 86.792H214.277V87.8118C212.944 87.8118 211.57 87.7336 210.16 87.7336C208.747 87.7336 207.336 87.7739 205.885 87.8118V86.792Z" fill="#FE5000"/>
<path fill-rule="evenodd" clip-rule="evenodd" d="M224.948 75.7318C225.927 75.7318 226.046 75.2222 226.046 74.7522C226.046 72.7515 224.83 71.1432 222.633 71.1432C220.243 71.1432 218.595 72.908 218.124 75.7318H224.948ZM218.005 76.987C217.926 77.3396 217.926 77.9286 218.005 79.2632C218.24 82.9867 220.633 86.0469 223.771 86.0469C225.927 86.0469 227.615 84.8694 229.066 83.4192L229.614 83.9686C227.811 86.3592 225.574 88.4007 222.359 88.4007C216.122 88.4007 214.869 82.3597 214.869 79.8511C214.869 72.1631 220.045 69.8898 222.791 69.8898C225.967 69.8898 229.38 71.8887 229.419 76.0465C229.419 76.2806 229.419 76.5164 229.38 76.7511L229.026 76.987H218.005Z" fill="#FE5000"/>
<path fill-rule="evenodd" clip-rule="evenodd" d="M242.005 70.4767V72.5953H237.024V85.8504C237.024 86.792 238.004 86.792 238.867 86.792H240.633V87.8119C238.946 87.774 237.299 87.7337 235.612 87.7337C234.005 87.7337 232.357 87.774 230.749 87.8119V86.792H232.24C233.691 86.792 233.886 86.1259 233.886 85.5357V72.5953H231.141V71.928C232.043 71.3804 233.886 70.7914 233.886 69.4574C233.886 66.9086 234.592 63.0643 237.024 60.5551C239.181 58.3198 241.22 57.8492 241.77 57.8492C242.436 57.8492 243.535 58.0074 243.535 59.4576C243.535 60.321 243.102 60.9866 242.161 60.9866C240.985 60.9866 240.985 60.4384 239.652 60.4384C237.26 60.4384 237.024 63.261 237.024 64.8694V70.4767H242.005Z" fill="#FE5000"/>
<path fill-rule="evenodd" clip-rule="evenodd" d="M46.2776 57.2234H46.4559C46.6641 57.2234 46.8425 57.1463 46.8425 56.9519C46.8425 56.815 46.7383 56.6781 46.4559 56.6781C46.3736 56.6781 46.3178 56.6827 46.2776 56.6896V57.2234ZM46.2776 58.1023H46.0228V56.5181C46.1528 56.4992 46.281 56.4802 46.4709 56.4802C46.709 56.4802 46.866 56.5325 46.9598 56.6004C47.0564 56.6683 47.1088 56.7747 47.1088 56.9317C47.1088 57.1377 46.9656 57.2625 46.797 57.3131V57.3235C46.9339 57.3511 47.0288 57.4759 47.061 57.7117C47.1007 57.9562 47.1381 58.05 47.1623 58.1023H46.8971C46.8614 58.05 46.8229 57.9004 46.7918 57.6956C46.7521 57.4978 46.6526 57.419 46.4501 57.419H46.2776V58.1023ZM46.537 56.0787C45.9152 56.0787 45.4067 56.6136 45.4067 57.2786C45.4067 57.9499 45.9152 58.4797 46.5445 58.4797C47.1772 58.482 47.6788 57.9499 47.6788 57.282C47.6788 56.6136 47.1772 56.0787 46.5445 56.0787H46.537ZM46.5445 55.8595C47.321 55.8595 47.936 56.4842 47.936 57.2786C47.936 58.0764 47.321 58.7006 46.537 58.7006C45.7639 58.7006 45.1357 58.0764 45.1357 57.2786C45.1357 56.4842 45.7639 55.8595 46.537 55.8595H46.5445Z" fill="#FFA300"/>
<path fill-rule="evenodd" clip-rule="evenodd" d="M245.62 57.2234H245.798C246.005 57.2234 246.183 57.1463 246.183 56.9519C246.183 56.815 246.08 56.6781 245.798 56.6781C245.716 56.6781 245.659 56.6827 245.62 56.6896V57.2234ZM245.62 58.1023H245.365V56.5181C245.495 56.4992 245.624 56.4802 245.812 56.4802C246.051 56.4802 246.207 56.5325 246.302 56.6004C246.398 56.6688 246.45 56.7747 246.45 56.9317C246.45 57.1377 246.306 57.2631 246.139 57.3131V57.3235C246.276 57.3511 246.37 57.4765 246.403 57.7117C246.443 57.9562 246.479 58.05 246.504 58.1023H246.238C246.203 58.05 246.165 57.9004 246.133 57.6956C246.094 57.4978 245.994 57.419 245.792 57.419H245.62V58.1023ZM245.879 56.0787C245.258 56.0787 244.749 56.6136 244.749 57.2786C244.749 57.9505 245.258 58.4797 245.886 58.4797C246.518 58.482 247.02 57.9505 247.02 57.282C247.02 56.6136 246.518 56.0787 245.886 56.0787H245.879ZM245.886 55.8595C246.663 55.8595 247.277 56.4842 247.277 57.2786C247.277 58.0764 246.663 58.7006 245.879 58.7006C245.105 58.7006 244.477 58.0764 244.477 57.2786C244.477 56.4842 245.105 55.8595 245.879 55.8595H245.886Z" fill="#FE5000"/>
<path d="M23.6629 74.8772L26.4506 75.5688L26.5907 75.8695L26.122 78.0984C24.9991 78.679 24.0038 79.4701 23.1923 80.3288C23.1463 80.3739 23.1005 80.421 23.0551 80.4701C21.6701 80.3593 19.9013 80.0625 20.0464 78.5537C20.1336 77.1758 21.2778 76.3788 22.2367 75.7108C22.3911 75.6032 22.5407 75.499 22.6804 75.3962C23.0138 75.213 23.3416 75.0402 23.6629 74.8772Z" fill="#FFA300"/>
<path d="M18.9598 73.7443L19.1065 73.7468L22.9335 74.6963C22.7163 74.8023 22.4992 74.9125 22.2823 75.0269C22.1337 75.1329 21.9734 75.2405 21.8069 75.3521C20.5982 76.1625 19.0679 77.1885 19.3895 79.4309C20.2681 80.7812 21.3748 81.1331 22.4714 81.2567C21.8446 82.316 21.5767 83.7108 22.5521 84.7236C23.0626 85.1975 23.6321 85.4853 24.217 85.6565C22.821 87.0469 22.5078 88.2541 22.6263 88.2325C22.671 88.1705 22.7185 88.0966 22.7729 88.012C23.0395 87.5977 23.4717 86.9258 24.5549 86.1218L23.9785 89.1084L23.3763 96.6128L17.6874 96.0273L7.91309 94.9326L8.08968 83.1519L8.65629 77.8724L8.90824 73.5748L15.5794 73.6873L15.9934 73.9639C15.9934 73.9639 17.5948 74.1203 18.4347 73.8379C18.5315 73.8058 18.7131 73.7747 18.9598 73.7443Z" fill="#FFA300"/>
<path d="M23.7188 96.648L24.8249 96.7619L29.3681 96.201L30.4093 89.4029L29.6327 83.5183L29.5565 80.8502C29.5067 80.8617 29.4569 80.8729 29.4071 80.8839C28.6634 81.047 27.9151 81.1722 27.1626 81.2588L26.9412 83.6918C27.6768 83.2837 28.8476 82.7425 29.3669 83.8734C29.5441 85.3784 27.8623 85.7033 26.7443 85.8566L26.4164 89.4605L23.7188 96.648Z" fill="#FFA300"/>
<path d="M29.4821 78.2461L29.5282 79.8589C29.1964 79.956 28.8915 80.0217 28.6576 80.0354C28.1898 80.1353 27.7202 80.2206 27.2507 80.2905L27.2884 79.876L27.479 78.7286C28.1315 78.478 28.8093 78.309 29.4821 78.2461Z" fill="#FFA300"/>
<path d="M29.4507 77.1452C28.8453 77.1826 28.2563 77.2929 27.6894 77.4618L27.8096 76.7381L28.1474 75.9898L29.4268 76.3072L29.4507 77.1452Z" fill="#FFA300"/>
<path d="M24.217 85.6565C24.3525 85.6962 24.4887 85.7296 24.6252 85.7576L24.7376 85.1755C24.5493 85.3372 24.3762 85.4981 24.217 85.6565Z" fill="#FFA300"/>
<path d="M23.8221 81.3484C23.6896 81.3398 23.5553 81.3328 23.4197 81.3257C23.1084 81.3094 22.7903 81.2927 22.4714 81.2567C22.6448 80.9638 22.8456 80.6965 23.0551 80.4701C23.2458 80.4853 23.4296 80.4971 23.5997 80.5079L23.6594 80.5117C23.9696 80.5216 24.2822 80.5234 24.5968 80.5173C24.311 80.7819 24.0508 81.0606 23.8221 81.3484Z" fill="#FFA300"/>
<path d="M23.8221 81.3484C24.0195 81.3611 24.2129 81.3771 24.4009 81.4016C24.7577 81.4056 25.1136 81.401 25.4686 81.3877L24.8264 84.7152C23.3968 84.3685 22.3698 83.4505 23.4517 81.8658C23.5634 81.6908 23.6873 81.518 23.8221 81.3484Z" fill="#FFA300"/>
<path d="M24.5968 80.5173C24.9659 80.1757 25.3775 79.8574 25.8187 79.5732L25.6459 80.4689C25.2945 80.4944 24.9445 80.5106 24.5968 80.5173Z" fill="#FFA300"/>
<path d="M26.8542 84.6484L26.8362 84.8458C27.4156 84.7874 27.937 84.6443 28.2912 84.4227C29.1062 83.7747 28.0403 84.0861 26.8542 84.6484Z" fill="#FFA300"/>
<path d="M25.9917 78.1671C26.1245 77.2407 26.2881 76.3406 26.4455 75.5579L26.5907 75.8695L26.122 78.0984C26.0784 78.121 26.0349 78.1439 25.9917 78.1671Z" fill="#FFBE4C"/>
<path d="M26.6502 86.8906L26.7443 85.8566C27.8623 85.7033 29.5442 85.3785 29.3669 83.8734C28.8477 82.7425 27.6768 83.2838 26.9413 83.6919L27.1626 81.2588C27.9151 81.1723 28.6634 81.047 29.4071 80.884C30.228 80.7028 31.0466 80.46 31.8582 80.0815C32.2597 79.8773 32.6917 79.6558 33.0731 79.1456L33.3026 78.648C33.0369 77.7923 32.9918 77.846 32.9465 77.9C32.9217 77.9295 32.8968 77.9592 32.8355 77.8393L32.1976 77.4941C30.6169 76.9856 29.0864 77.0455 27.6894 77.4619L27.8096 76.7381L29.3829 73.2533L30.7546 72.4967L36.4585 71.7372L43.1077 71.1936L46.161 72.5046L47.2913 83.3644L47.5858 89.3203L46.8823 91.9353C46.8823 91.9353 41.8542 92.0791 40.9108 92.2017C39.9692 92.3265 34.1363 92.6894 34.1363 92.6894L29.7375 93.2768C29.7375 93.2768 28.0717 93.3389 27.7955 91.3129C27.6809 90.4403 27.3645 89.356 27.0095 88.1392C26.892 87.7365 26.7703 87.3194 26.6502 86.8906Z" fill="#FFBE4C"/>
<path d="M27.479 78.7286L27.2884 79.876L27.2507 80.2906C27.7202 80.2206 28.1899 80.1353 28.6576 80.0355C29.8846 79.9636 33.0673 78.4582 31.8317 78.5209C30.4722 78.0208 28.9146 78.1774 27.479 78.7286Z" fill="#FFBE4C"/>
<path d="M26.8542 84.6484L26.8363 84.8458C27.4156 84.7874 27.937 84.6443 28.2912 84.4228C29.1062 83.7747 28.0403 84.0861 26.8542 84.6484Z" fill="#FFBE4C"/>
<path d="M22.4434 74.9426C23.4727 74.4098 24.5065 73.9726 25.5371 73.6085L25.3962 73.3061C24.7142 73.3537 23.8969 73.4013 23.0646 73.4497C22.9293 73.4576 22.7935 73.4655 22.6579 73.4734L22.4434 74.9426Z" fill="#FFA300"/>
<path d="M28.5392 75.1216L29.7867 75.1131C29.7867 75.1131 34.3379 75.1798 35.3826 75.2862C36.4209 75.3972 42.0656 75.1602 42.0656 75.1602C42.0656 75.1602 42.4119 75.1988 42.6713 72.7235C42.993 69.6736 43.133 68.9415 43.6982 65.9855C43.7547 65.6901 43.8155 65.3725 43.881 65.0281C43.9609 64.6114 44.0478 64.1537 44.1431 63.6476C42.7373 64.349 40.9546 65.3255 41.4562 65.5396C43.6812 66.4921 40.2022 68.1528 40.2022 68.1528L34.906 70.7397C34.906 70.7397 34.1746 70.9176 33.2132 71.1403L29.3827 73.2533L28.5392 75.1216Z" fill="#FFA300"/>
<path fill-rule="evenodd" clip-rule="evenodd" d="M44.5427 60.2423L44.3729 56.6406L43.4663 55.2952L36.3093 53.2836L25.9004 52.182L22.6389 63.0959L23.0594 68.0379C23.9542 68.5693 24.5413 69.0335 24.7281 69.3689C24.8837 69.6517 25.2728 70.153 25.6967 70.6993C26.001 71.0912 26.3233 71.5065 26.59 71.8805L27.8094 72.5584L30.2514 71.7876C29.7801 71.8806 29.372 71.9528 29.0898 71.9873C27.7064 72.1634 29.03 70.0666 29.9579 69.0721C30.155 68.8615 30.5195 68.3311 30.945 67.7117C31.5448 66.8385 32.2661 65.7886 32.8116 65.2088C33.7359 64.2194 39.3848 60.9221 44.5427 60.2423ZM25.7013 65.7051C25.7013 65.7051 28.0603 65.6758 28.4135 66.4179C28.765 67.1593 28.8955 68.193 28.8955 68.193L27.9614 69.0979C27.9614 69.0979 25.1186 69.4488 25.7013 65.7051Z" fill="#FFA300"/>
<path d="M26.2494 75.1373L23.1199 75.1588C24.0288 74.6768 24.8916 74.2725 25.6887 73.9339L26.2494 75.1373Z" fill="#FFA300"/>
<path d="M7.17027 56.2862L4.72266 57.0927C4.72266 57.0927 4.73013 69.0886 4.97403 70.9897C5.16731 72.5072 5.10231 76.65 5.10231 76.65L8.53242 77.6342L16.4706 76.7489L20.5862 76.2579C20.9761 75.9088 21.4088 75.6187 21.8066 75.352C21.9731 75.2404 22.1334 75.1329 22.282 75.0268C23.3646 74.4556 24.4526 73.9916 25.5369 73.6084L25.396 73.3061C24.7141 73.3537 23.8968 73.4012 23.0645 73.4497C21.0125 73.5691 18.8686 73.6939 18.4344 73.8378C17.5945 74.1202 15.9931 73.9638 15.9931 73.9638L11.7835 71.1521L11.286 69.9843L10.9034 69.118L6.6496 64.5518C8.55419 64.3194 13.7111 64.0686 17.5767 65.5177C21.4434 66.9707 24.273 68.552 24.728 69.3688C24.8835 69.6517 25.2726 70.153 25.6966 70.6992C26.0008 71.0912 26.3232 71.5064 26.5898 71.8805L27.3613 72.3093L27.3063 69.78L27.1411 69.0249C26.352 68.8154 25.3293 68.0937 25.7011 65.7051C25.7011 65.7051 26.0231 65.7011 26.4469 65.7335L25.8883 57.4171L14.8744 56.2494L7.17027 56.2862Z" fill="#FE5000"/>
<path d="M26.4456 75.5588L25.6886 73.9339C24.7639 74.3266 23.7509 74.8077 22.6801 75.3961C22.5404 75.4989 22.3908 75.6031 22.2364 75.7107C22.0443 75.8445 21.8448 75.9834 21.6479 76.1312L26.4456 75.5588Z" fill="#FE5000"/>
<path fill-rule="evenodd" clip-rule="evenodd" d="M44.6598 60.2273C39.4706 60.8721 33.743 64.2119 32.8117 65.2088C32.2663 65.7886 31.545 66.8385 30.9451 67.7117C30.5196 68.3311 30.1552 68.8615 29.958 69.0721C29.0302 70.0666 27.7066 72.1634 29.09 71.9873C29.3721 71.9528 29.7803 71.8807 30.2516 71.7876L27.8096 72.5584L26.5901 71.8805C26.3235 71.5065 26.0011 71.0912 25.6969 70.6993C25.2729 70.1531 24.8838 69.6517 24.7283 69.3689C24.2733 68.5521 21.4437 66.9707 17.577 65.5177C13.7115 64.0687 8.5545 64.3195 6.6499 64.5519L10.9037 69.1181L11.2863 69.9844L11.7838 71.1521L15.9934 73.9638C15.9934 73.9638 17.5948 74.1203 18.4347 73.8379C18.8689 73.6939 21.0127 73.5692 23.0646 73.4497C23.897 73.4013 24.7143 73.3537 25.3963 73.3061L25.5372 73.6085C24.4529 73.9916 23.3649 74.4556 22.2823 75.0269C22.1337 75.1329 21.9734 75.2405 21.8069 75.3521C20.5982 76.1625 19.0679 77.1885 19.3895 79.4309C20.2681 80.7812 21.3748 81.133 22.4714 81.2567C21.8446 82.316 21.5767 83.7108 22.5521 84.7236C23.0626 85.1975 23.6321 85.4853 24.217 85.6565C22.821 87.0469 22.5078 88.2541 22.6263 88.2325C22.671 88.1704 22.7186 88.0965 22.773 88.0119C23.0395 87.5976 23.4717 86.9258 24.5549 86.1218L23.9785 89.1084L23.2796 97.818L26.4164 89.4605L26.7443 85.8565C27.8623 85.7033 29.5441 85.3784 29.3669 83.8734C28.8476 82.7425 27.6768 83.2837 26.9412 83.6918L27.1626 81.2588C27.9151 81.1722 28.6633 81.047 29.4071 80.8839C30.228 80.7027 31.0465 80.46 31.8582 80.0815C32.2597 79.8772 32.6917 79.6558 33.0731 79.1456L33.3026 78.648C33.0369 77.7922 32.9918 77.8459 32.9465 77.8999C32.9217 77.9295 32.8968 77.9592 32.8355 77.8392L32.1976 77.4941C30.6168 76.9855 29.0864 77.0455 27.6894 77.4618L27.8096 76.7381L29.3828 73.2533L33.2134 71.1403C34.1748 70.9176 34.9062 70.7397 34.9062 70.7397L40.2023 68.1528C40.2023 68.1528 43.6813 66.4921 41.4563 65.5396C40.6545 65.1973 45.6918 62.9062 45.6918 62.9062L44.6598 60.2273ZM24.217 85.6565C24.3762 85.4981 24.5493 85.3372 24.7375 85.1755L24.6252 85.7576C24.4887 85.7296 24.3524 85.6962 24.217 85.6565ZM23.0551 80.4701C22.8456 80.6965 22.6448 80.9638 22.4714 81.2567C22.7903 81.2927 23.1084 81.3094 23.4197 81.3257C23.5553 81.3328 23.6896 81.3398 23.8221 81.3484C23.6873 81.518 23.5634 81.6908 23.4517 81.8658C22.3698 83.4505 23.3968 84.3685 24.8264 84.7152L25.4686 81.3877C25.1136 81.401 24.7577 81.4056 24.4009 81.4016C24.2129 81.3771 24.0194 81.3611 23.8221 81.3484C24.0508 81.0606 24.311 80.7819 24.5968 80.5173C24.9445 80.5106 25.2945 80.4944 25.6459 80.4689L25.8187 79.5732C25.3775 79.8574 24.9659 80.1757 24.5968 80.5173C24.2822 80.5234 23.9695 80.5216 23.6594 80.5117L23.5997 80.5079C23.4296 80.497 23.2458 80.4853 23.0551 80.4701ZM23.0551 80.4701C21.6701 80.3593 19.9013 80.0625 20.0464 78.5536C20.1336 77.1758 21.2778 76.3787 22.2367 75.7107C22.3911 75.6032 22.5407 75.499 22.6804 75.3962C23.7512 74.8078 24.7642 74.3267 25.6889 73.934L26.5907 75.8695L26.122 78.0984C24.9991 78.679 24.0038 79.4701 23.1923 80.3288C23.1463 80.3739 23.1005 80.421 23.0551 80.4701ZM27.2884 79.8759L27.479 78.7285C28.9146 78.1773 30.4721 78.0207 31.8317 78.5209C33.0673 78.4581 29.8846 79.9635 28.6576 80.0354C28.1898 80.1353 27.7202 80.2206 27.2507 80.2905L27.2884 79.8759ZM26.8362 84.8457L26.8542 84.6484C28.0403 84.0861 29.1062 83.7747 28.2912 84.4227C27.937 84.6443 27.4156 84.7873 26.8362 84.8457Z" fill="#FFFFFE"/>
<path d="M28.4136 66.4179C28.0605 65.6758 25.7014 65.7052 25.7014 65.7052C25.1187 69.4488 27.9615 69.0979 27.9615 69.0979L28.8957 68.193C28.8957 68.193 28.7651 67.1593 28.4136 66.4179Z" fill="#FFFFFE"/>
</svg>
