<svg width="312" height="47" viewBox="0 0 312 47" fill="none" xmlns="http://www.w3.org/2000/svg">
<g clip-path="url(#clip0_1993_4634)">
<path d="M24.6259 47.1935H12.7559C12.9359 43.3635 12.8459 39.5535 13.3859 35.8435C13.7759 33.1435 16.7259 31.5435 19.4959 31.8435C20.8796 32.0526 22.1467 32.7387 23.078 33.7833C24.0093 34.8278 24.5463 36.165 24.5959 37.5635C24.5959 37.9935 24.5959 38.4335 24.5959 38.8735L24.6259 47.1935Z" fill="#0D1125"/>
<path d="M17.9552 6.21352C16.9552 5.32352 14.8152 7.05352 14.7952 4.37352L18.0352 4.19352V0.893521L19.6152 0.733521L19.8152 4.24352H22.9152V5.84352H19.9152C19.4542 7.64091 19.4898 9.52973 20.0181 11.3085C20.5465 13.0872 21.5478 14.6892 22.9152 15.9435C23.9844 16.945 24.9188 18.0812 25.6952 19.3235C26.9952 21.5835 26.2552 23.4235 23.8052 24.1935C20.5478 25.1998 17.0626 25.1998 13.8052 24.1935C11.2852 23.4335 10.6152 21.4435 12.0452 19.1935C12.8359 18.0216 13.7549 16.9416 14.7852 15.9735C16.1132 14.7603 17.1036 13.223 17.6592 11.5122C18.2149 9.80137 18.3169 7.97559 17.9552 6.21352Z" fill="#0D1125"/>
<path d="M281.436 8.17352V22.0135H278.546C279.304 15.3624 279.214 8.64174 278.276 2.01352C278.026 2.17352 278.096 2.10352 278.176 2.08352C280.896 1.50352 282.366 2.58352 283.556 5.17352C285.246 8.85352 287.556 12.2435 289.556 15.7535L290.096 15.6735C289.846 11.1835 289.596 6.67352 289.336 2.14352H292.406V21.8135C290.496 22.4435 289.596 21.9135 288.796 20.4935C286.546 16.4935 284.136 12.6435 281.796 8.72352C281.696 8.51352 281.536 8.32352 281.436 8.17352Z" fill="#0D1125"/>
<path d="M149.076 22.0135H146.076C146.881 15.3637 146.776 8.63521 145.766 2.01353C146.766 1.95722 147.768 1.97393 148.766 2.06353C149.278 2.22868 149.705 2.5876 149.956 3.06353C152.196 6.92353 154.366 10.8035 156.576 14.6735C156.746 14.9835 156.986 15.2635 157.186 15.5635L157.696 15.4735L156.896 2.07353H159.966V21.7935C158.036 22.4935 157.166 21.8635 156.376 20.4735C154.206 16.6535 151.886 12.9135 149.616 9.14353C149.388 8.71848 149.01 8.39386 148.556 8.23353L149.076 22.0135Z" fill="#0D1125"/>
<path d="M235.815 2.10355H238.905C238.735 8.75355 238.565 15.3535 238.395 21.9735C237.035 22.3835 236.185 21.9735 235.395 20.6435C233.215 16.7635 230.855 12.9835 228.565 9.16355C228.355 8.81355 228.115 8.49355 227.925 8.21355V22.0235H225.055C225.515 15.3635 225.865 8.73355 224.535 2.09355H224.745C227.405 1.58355 228.845 2.67355 230.015 5.18355C231.745 8.89355 234.015 12.3535 236.085 15.9235L236.675 15.8035C236.455 11.2235 236.155 6.73355 235.815 2.10355Z" fill="#0D1125"/>
<path d="M123.086 10.5335C123.086 10.3735 123.086 10.2035 123.086 10.0435C122.816 2.1035 129.086 0.653502 134.306 2.3935C135.267 2.7135 136.121 3.29277 136.774 4.06741C137.427 4.84206 137.853 5.78198 138.006 6.7835C138.859 10.6912 138.442 14.7694 136.816 18.4235C136.342 19.6182 135.512 20.6381 134.438 21.3448C133.365 22.0514 132.1 22.4106 130.816 22.3735C127.986 22.3735 125.756 21.1835 124.766 18.5635C123.921 15.9658 123.213 13.3255 122.646 10.6535L123.086 10.5335ZM134.806 11.1235C134.68 9.39653 134.463 7.67744 134.156 5.9735C134.049 5.16313 133.651 4.41916 133.037 3.88014C132.422 3.34112 131.633 3.04378 130.816 3.0435C129.026 3.0435 127.996 3.8635 127.386 5.9035C126.386 9.2935 126.716 12.7035 127.386 16.0835C127.616 17.4578 128.101 18.777 128.816 19.9735C129.018 20.3244 129.31 20.6158 129.661 20.8184C130.012 21.021 130.41 21.1276 130.816 21.1276C131.221 21.1276 131.619 21.021 131.97 20.8184C132.321 20.6158 132.613 20.3244 132.816 19.9735C133.302 19.2648 133.642 18.4657 133.816 17.6235C134.256 15.4135 134.516 13.2135 134.816 11.1235H134.806Z" fill="#0D1125"/>
<path d="M215.425 2.05353C214.815 5.05353 215.955 11.6235 218.855 22.0535H214.515C214.345 20.3735 214.255 18.7535 214.005 17.1635C213.766 15.7122 213.098 14.3657 212.088 13.2966C211.077 12.2275 209.771 11.4847 208.335 11.1635C207.405 11.0235 206.985 11.2335 206.725 12.1635C205.909 14.9462 205.982 17.9146 206.935 20.6535L207.445 22.0635H203.705C203.465 14.6235 204.705 7.74353 210.705 2.59353C211.179 2.26646 211.74 2.08882 212.315 2.08353C213.335 1.99353 214.375 2.05353 215.425 2.05353ZM211.425 4.83353L210.955 4.73353L207.755 9.31353L212.685 10.5835C212.295 8.79353 211.865 6.81353 211.435 4.83353H211.425Z" fill="#0D1125"/>
<path d="M12.9754 29.8935V26.0435H24.6154V29.8935C26.8054 29.8935 28.8654 29.8935 30.9154 29.8935C31.5409 29.8843 32.1613 30.008 32.7355 30.2564C33.3097 30.5048 33.8246 30.8723 34.2462 31.3345C34.6678 31.7967 34.9864 32.3432 35.1811 32.9378C35.3758 33.5323 35.442 34.1615 35.3754 34.7835C34.0354 33.1535 32.5954 31.9335 30.4554 32.0635C29.4349 32.1309 28.452 32.4745 27.6118 33.0576C26.7715 33.6406 26.1057 34.4412 25.6854 35.3735C24.2254 32.4635 22.1454 30.5235 18.8854 30.5735C15.6254 30.6235 13.5254 32.3735 12.1554 35.4235C11.1054 33.4235 9.59539 31.9235 7.51539 32.1635C5.67539 32.3635 3.92539 33.4135 2.27539 34.0435C2.38596 32.8935 2.92611 31.8275 3.78804 31.0583C4.64997 30.289 5.77029 29.8731 6.92539 29.8935C8.92539 29.8635 10.9254 29.8935 12.9754 29.8935Z" fill="#0D1125"/>
<path d="M177.735 1.64349C178.196 2.71603 178.434 3.87115 178.434 5.03849C178.434 6.20584 178.196 7.36096 177.735 8.43349C177.259 7.31269 176.712 6.22376 176.095 5.17349C175.663 4.49909 175.014 3.99142 174.255 3.73349C173.345 3.51349 171.865 3.44349 171.465 3.96349C171.215 4.40903 171.072 4.90728 171.05 5.41799C171.027 5.9287 171.125 6.43757 171.335 6.90349C172.213 8.20555 173.24 9.40036 174.395 10.4635C175.575 11.7435 176.935 12.8835 177.975 14.2635C180.475 17.5835 179.135 21.1135 175.105 22.1235C174.065 22.442 172.97 22.5416 171.889 22.4159C170.808 22.2903 169.765 21.9422 168.825 21.3935C167.665 20.6835 166.645 19.6735 166.985 18.2235C167.148 17.4992 167.53 16.8427 168.08 16.3435C168.629 15.8442 169.319 15.5265 170.055 15.4335C169.963 16.4648 170.034 17.5042 170.265 18.5135C170.625 19.5388 171.333 20.4056 172.265 20.9635C172.747 21.0781 173.248 21.0818 173.732 20.9744C174.215 20.867 174.668 20.6513 175.055 20.3435C175.52 19.9001 175.791 19.2912 175.81 18.649C175.829 18.0069 175.594 17.3832 175.155 16.9135C173.733 15.211 172.214 13.5916 170.605 12.0635C169.015 10.5035 167.655 8.87349 167.485 6.53349C167.315 4.19349 168.315 2.69349 170.485 2.15349C171.712 1.95742 172.953 1.86709 174.195 1.88349L177.735 1.64349Z" fill="#0D1125"/>
<path d="M52.075 1.5835C52.8236 3.85679 52.8236 6.31021 52.075 8.5835C51.7247 7.54153 51.2725 6.53666 50.725 5.5835C50.1934 4.71661 49.4224 4.02202 48.505 3.5835C48.0454 3.42264 47.5553 3.36875 47.0718 3.42594C46.5883 3.48313 46.1243 3.64988 45.715 3.9135C45.4748 4.34157 45.3404 4.82084 45.323 5.31137C45.3056 5.8019 45.4057 6.28949 45.615 6.7335C46.335 7.94367 47.2202 9.04762 48.245 10.0135C49.355 11.2135 50.615 12.2635 51.685 13.4935C55.005 17.2835 53.685 21.4935 48.685 22.1935C46.9197 22.3157 45.1484 22.067 43.485 21.4635C42.7822 21.2964 42.1662 20.8748 41.7562 20.2801C41.3462 19.6854 41.1712 18.9598 41.265 18.2435C41.475 16.7035 42.625 15.8735 44.145 15.4035C44.211 16.5387 44.3547 17.668 44.575 18.7835C44.6514 19.2133 44.8245 19.6201 45.0812 19.9731C45.3379 20.3262 45.6716 20.6163 46.0569 20.8215C46.4422 21.0266 46.8691 21.1415 47.3053 21.1575C47.7415 21.1734 48.1757 21.09 48.575 20.9135C48.9127 20.7356 49.2083 20.487 49.4414 20.1847C49.6746 19.8824 49.84 19.5335 49.9263 19.1616C50.0126 18.7897 50.0179 18.4036 49.9418 18.0295C49.8656 17.6554 49.7098 17.302 49.485 16.9935C48.4411 15.4822 47.219 14.1023 45.845 12.8835C44.095 11.2235 42.355 9.6235 41.845 7.1235C41.335 4.6235 42.415 2.6435 44.765 2.1235C46.0892 1.93148 47.4275 1.85452 48.765 1.8935C49.815 1.8335 50.735 1.7335 52.075 1.5835Z" fill="#0D1125"/>
<path d="M310.156 8.5535C309.321 8.88079 308.466 9.15467 307.596 9.3735C307.054 9.40383 306.51 9.37026 305.976 9.2735C303.866 9.2135 303.476 9.5435 303.476 11.6735C303.476 14.1735 303.596 16.6735 303.616 19.1835C303.616 20.4635 304.316 20.9035 305.456 20.9335C307.596 20.9835 309.456 20.4135 310.456 18.3335C310.566 18.1235 310.716 17.9435 311.236 17.8435C311.146 18.8435 311.106 19.8435 310.956 20.7935C310.806 21.7435 310.186 22.1135 309.206 22.1035C305.786 22.1035 302.356 22.1035 298.676 22.1035C300.236 20.6135 300.266 18.8535 300.236 17.1035C300.236 13.3435 300.236 9.5835 300.156 5.8235C300.041 4.57065 299.837 3.32753 299.546 2.1035C302.666 2.1035 306.016 2.0335 309.346 2.1735C309.886 2.1735 310.596 3.0835 310.856 3.7235C311.087 4.57133 311.211 5.44479 311.226 6.3235L310.846 6.4435C310.436 5.9235 310.056 5.3835 309.626 4.8835C308.486 3.5635 305.916 2.7435 304.446 3.5435C303.886 3.8535 303.636 5.0335 303.536 5.8535C303.436 6.6735 303.596 7.6335 304.816 7.7335C306.546 7.8435 308.266 7.9135 309.996 8.0035L310.156 8.5535Z" fill="#0D1125"/>
<path d="M11.2257 46.9435H3.05572C3.05572 43.4635 2.94572 40.0435 3.05572 36.6335C3.18881 35.6531 3.68055 34.7567 4.43594 34.1177C5.19134 33.4786 6.15678 33.1423 7.14572 33.1735C8.16323 33.193 9.13693 33.5911 9.8766 34.2901C10.6163 34.9891 11.0688 35.9387 11.1457 36.9535C11.3257 40.2535 11.2257 43.5635 11.2257 46.9435Z" fill="#0D1125"/>
<path d="M34.8153 46.9935H26.6153C26.6153 43.5035 26.4953 39.9935 26.6653 36.5635C26.7653 34.6235 28.8753 33.1135 30.8253 33.1735C31.8397 33.2182 32.8018 33.6359 33.5271 34.3464C34.2524 35.0569 34.6898 36.0103 34.7553 37.0235C34.8153 40.2835 34.8153 43.5435 34.8153 46.9935Z" fill="#0D1125"/>
<path d="M193.896 22.0735H187.896C189.776 20.6235 189.466 18.7935 189.476 17.0735C189.476 13.2035 189.476 9.33352 189.476 5.46352C189.476 4.74352 189.106 3.54352 188.676 3.46352C188.271 3.40616 187.859 3.43822 187.469 3.55744C187.078 3.67667 186.719 3.88015 186.416 4.15352C185.418 5.27717 184.505 6.47384 183.686 7.73352C183.732 6.20966 183.872 4.69011 184.106 3.18352C184.243 2.89759 184.449 2.65021 184.706 2.46348C184.962 2.27676 185.261 2.15652 185.576 2.11352C189.386 2.02352 193.206 2.11352 197.016 2.04352C198.196 2.04352 198.566 2.74352 198.636 3.65352C198.736 4.89352 198.636 6.13352 198.636 7.65352C198.022 6.51887 197.298 5.44708 196.476 4.45352C195.715 3.91137 194.871 3.49911 193.976 3.23352C193.531 3.97824 193.217 4.79322 193.046 5.64352C192.936 9.78352 192.896 13.9335 192.986 18.0735C193.162 19.4325 193.467 20.7718 193.896 22.0735Z" fill="#0D1125"/>
<path d="M254.565 22.0235H248.815C250.385 20.4935 250.345 18.6235 250.325 16.7435C250.325 13.1435 250.325 9.54349 250.255 5.95349C250.065 5.00054 249.727 4.08295 249.255 3.23349C248.296 3.59227 247.388 4.07647 246.555 4.67349C245.795 5.37349 245.335 6.40349 244.365 7.24349C244.457 5.83608 244.621 4.43426 244.855 3.04349C244.968 2.79639 245.14 2.58114 245.357 2.41707C245.573 2.253 245.827 2.14525 246.095 2.10349C250.015 2.02349 253.935 2.03349 257.855 2.10349C258.275 2.10349 259.005 2.52349 259.065 2.84349C259.345 4.29349 259.425 5.77349 259.585 7.24349H259.155C258.595 6.19847 257.924 5.21624 257.155 4.31349C256.385 3.81923 255.536 3.4607 254.645 3.25349C254.22 4.03681 253.895 4.86985 253.675 5.73349C253.578 7.09133 253.562 8.45369 253.625 9.81349C253.625 12.4835 253.525 15.1635 253.675 17.8135C253.858 19.2385 254.155 20.6465 254.565 22.0235Z" fill="#0D1125"/>
<path d="M68.4152 22.0235H63.0152C63.4077 20.5134 63.6852 18.9756 63.8452 17.4235C63.9652 13.5635 63.9352 9.68352 63.8452 5.82352C63.6565 4.92054 63.3185 4.05535 62.8452 3.26352C61.925 3.56387 61.0528 3.99494 60.2552 4.54352C59.5179 5.37878 58.8772 6.29457 58.3452 7.27352L57.8652 7.19352C58.0952 5.69352 58.2552 4.19352 58.6052 2.73352C58.6852 2.42352 59.4452 2.09352 59.8952 2.08352C63.7052 2.03352 67.5152 2.01352 71.3252 2.08352C71.6284 2.13826 71.9131 2.26744 72.154 2.45943C72.3949 2.65143 72.5843 2.90023 72.7052 3.18352C72.9664 4.50406 72.9664 5.86297 72.7052 7.18352C72.0144 6.0576 71.2317 4.99064 70.3652 3.99352C70.0754 3.73759 69.7354 3.54493 69.3669 3.42784C68.9985 3.31076 68.6096 3.27182 68.2252 3.31352C67.8252 3.38352 67.2952 4.38352 67.2852 4.97352C67.2252 9.76352 67.2152 14.5535 67.2852 19.3435C67.5066 20.2946 67.8888 21.201 68.4152 22.0235Z" fill="#0D1125"/>
<path d="M116.935 21.5535C116.435 21.7935 115.935 22.2635 115.415 22.2435C112.62 22.1841 109.939 21.1176 107.867 19.24C105.794 17.3624 104.469 14.7999 104.135 12.0236C104.005 11.1536 103.875 10.2935 103.825 9.42355C103.565 4.89355 106.035 2.22355 110.575 2.05355C112.575 1.98355 114.575 1.86355 116.835 1.76355C117.184 3.85477 116.833 6.00272 115.835 7.87355C115.535 6.96355 115.375 6.29355 115.105 5.66355C114.455 4.14355 113.475 3.16355 111.625 3.32355C109.775 3.48355 108.515 4.20355 108.145 5.95355C107.145 10.5935 107.815 14.9535 111.065 18.6235C111.792 19.4254 112.68 20.0645 113.671 20.4988C114.662 20.9331 115.733 21.1528 116.815 21.1435L116.935 21.5535Z" fill="#0D1125"/>
<path d="M311.816 46.7335H309.096C309.176 43.8835 309.226 41.0335 309.346 38.1935C309.416 36.6335 308.346 36.5035 307.346 36.5735C306.346 36.6435 304.716 36.2035 304.776 38.1635C304.856 40.9735 304.976 43.7735 305.076 46.6635H302.346V31.0935H305.036C305.136 32.5435 304.866 34.0935 305.466 35.1535C305.776 35.6735 308.466 35.6735 308.696 35.2235C309.266 34.0535 309.066 32.5135 309.166 31.0735H311.816V46.7335Z" fill="#0D1125"/>
<path d="M257.035 46.7335H254.285V31.0735H256.945C257.065 32.5635 256.855 34.0735 257.435 35.2435C257.675 35.7035 260.345 35.7035 260.665 35.1635C261.285 34.1635 261.015 32.5735 261.125 31.1035H263.815V46.7335H261.095C261.205 43.8135 261.375 40.9535 261.365 38.0935C261.29 37.788 261.141 37.5055 260.932 37.2703C260.723 37.0351 260.46 36.8543 260.165 36.7435C257.645 36.0435 256.715 36.7435 256.745 39.2735C256.775 41.8035 256.925 44.1635 257.035 46.7335Z" fill="#0D1125"/>
<path d="M77.6651 46.6735C73.6651 46.8935 73.6651 46.9035 72.7251 43.2635C72.3151 41.5835 72.1151 39.8535 71.7251 38.1735C71.6151 37.7235 70.9851 37.0235 70.7251 37.0835C70.2451 37.1835 69.5051 37.7335 69.4851 38.0835C69.3851 40.8935 69.4851 43.7035 69.4851 46.6235H66.7451V31.1735C68.6551 31.1735 70.9351 31.1735 73.2051 31.1735C74.3751 31.1735 75.5851 31.3635 75.9851 32.6535C76.1795 33.2633 76.1458 33.9231 75.8901 34.5099C75.6344 35.0967 75.1742 35.5706 74.5951 35.8435C73.1751 36.5935 73.2851 37.6135 73.5951 38.8435C74.221 41.7727 75.6273 44.4782 77.6651 46.6735ZM69.4351 33.9735C69.1951 35.3235 69.8451 35.8935 71.2451 35.8135C72.6451 35.7335 73.3951 35.1635 73.4051 33.7535C73.4051 32.5735 72.4651 31.9235 70.8751 31.9435C69.5251 31.9635 69.2751 32.7335 69.4351 33.9735Z" fill="#0D1125"/>
<path d="M131.816 46.7335H129.816C130.026 41.4635 130.376 36.2735 129.436 31.1035C131.946 30.8635 131.926 30.8735 133.136 33.2435C134.556 36.0435 136.006 38.8235 137.446 41.6135L137.936 41.5535C137.776 38.1135 137.616 34.6635 137.446 31.1235H139.576V46.5135C138.336 47.0135 137.716 46.7235 137.186 45.7135C135.486 42.4335 133.706 39.2135 131.786 35.7135L131.816 46.7335Z" fill="#0D1125"/>
<path d="M282.395 46.7336H279.625C280.12 41.5761 280.023 36.3789 279.335 31.2436C281.775 31.2436 284.335 31.1436 286.835 31.3136C287.545 31.3636 288.735 32.1736 288.765 32.6836C288.809 33.1977 288.742 33.7154 288.57 34.2017C288.397 34.6881 288.123 35.132 287.765 35.5036C286.015 36.6736 285.985 38.0936 286.645 39.6736C287.645 42.0836 288.825 44.4236 289.995 46.9336C290.185 46.6936 290.155 46.7636 290.125 46.7736C286.545 46.8536 286.505 46.8636 285.595 43.3536C285.185 41.7936 284.955 40.1736 284.675 38.5836C284.545 37.8236 284.565 37.0036 283.455 37.0236C282.345 37.0436 282.115 37.8236 282.135 38.6836C282.185 41.2936 282.295 43.9436 282.395 46.7336ZM283.815 35.8136C285.385 35.8136 286.365 34.9436 286.285 33.7136C286.165 32.0136 284.765 32.0836 283.645 31.9536C282.295 31.8036 282.085 32.8036 282.065 33.8636C282.085 35.1436 282.525 35.9936 283.815 35.8136Z" fill="#0D1125"/>
<path d="M107.645 46.5035C106.135 47.1135 105.645 46.4435 105.215 45.6135C103.485 42.3635 101.725 39.1335 99.8454 35.6135V46.6135H97.8154V31.1235H100.075L105.595 41.6735L106.125 41.5535C105.925 38.1235 105.725 34.6935 105.515 31.1435H107.655L107.645 46.5035Z" fill="#0D1125"/>
<path d="M65.3254 46.7935C62.0454 47.1235 61.6754 46.9435 60.9154 43.9835C60.4654 42.2535 60.2754 40.4735 59.9154 38.7035C59.8454 38.3335 59.9154 37.8635 59.7054 37.6135C59.4036 37.1926 58.9712 36.8833 58.4754 36.7335C58.2454 36.7335 57.6654 37.4335 57.6554 37.8235C57.5854 40.7535 57.6554 43.6935 57.6554 46.6935H55.1854C55.1854 44.1035 55.2354 41.5235 55.1854 38.9435C55.1354 36.3635 54.9354 33.7335 54.8154 31.0835H57.9154C57.7494 31.9112 57.6458 32.7502 57.6054 33.5935C57.6054 34.1935 57.8654 35.2735 58.0954 35.3035C58.4743 35.3759 58.8639 35.3726 59.2415 35.2936C59.6191 35.2147 59.9773 35.0617 60.2954 34.8435C61.1521 33.6485 61.9017 32.3802 62.5354 31.0535H65.1154C64.0454 32.6535 63.1154 34.0535 62.1954 35.4735C61.8243 35.9999 61.6094 36.6203 61.5754 37.2635C61.7634 40.4315 62.9344 43.4621 64.9254 45.9335C65.0822 46.2087 65.216 46.4963 65.3254 46.7935Z" fill="#0D1125"/>
<path d="M205.195 44.5235C204.877 45.3169 204.305 45.9826 203.569 46.4167C202.833 46.8509 201.973 47.0291 201.125 46.9235C200.304 46.9241 199.5 46.6851 198.813 46.2357C198.125 45.7863 197.584 45.1461 197.255 44.3935C195.756 41.2783 195.44 37.7245 196.365 34.3935C197.065 31.6635 198.885 30.6635 201.945 30.8835C203.071 30.9217 204.147 31.3591 204.981 32.1175C205.814 32.8759 206.351 33.9059 206.495 35.0235C206.653 37.0289 206.545 39.0463 206.175 41.0235C205.918 42.2086 205.591 43.3774 205.195 44.5235ZM204.115 36.2135C204.064 35.574 203.967 34.939 203.825 34.3135C203.515 33.1135 203.065 31.9335 201.455 31.8335C199.845 31.7335 199.085 32.8335 198.825 34.1735C198.126 37.4298 198.313 40.8137 199.365 43.9735C199.547 44.4151 199.827 44.8094 200.184 45.1265C200.541 45.4437 200.965 45.6752 201.425 45.8035C201.985 45.8635 203.055 44.7435 203.265 43.9735C203.475 43.2035 203.585 42.6335 203.705 41.9735C203.965 40.0642 204.101 38.1403 204.115 36.2135Z" fill="#0D1125"/>
<path d="M119.466 46.7335H116.875C116.765 41.5735 117.346 36.7335 120.796 32.6035C121.966 31.2035 123.185 30.6735 124.655 31.0735C125.545 36.3135 126.415 41.4635 127.305 46.6735H124.476C124.476 43.8735 124.475 40.9135 121.885 38.9535C121.124 38.5266 120.315 38.191 119.476 37.9535C118.406 40.6535 118.416 42.4535 119.466 46.7335ZM123.235 37.6635L122.375 33.3135L121.985 33.2435L119.695 36.8835L123.235 37.6635Z" fill="#0D1125"/>
<path d="M167.245 30.9335C168.175 36.3935 169.035 41.4835 169.915 46.6435H167.275C167.045 45.1035 166.925 43.6435 166.565 42.1335C166.387 41.2322 165.957 40.4 165.325 39.7335C164.391 39.0601 163.385 38.4933 162.325 38.0435C161.876 38.9496 161.563 39.9165 161.395 40.9135C161.395 42.7835 161.615 44.6535 161.755 46.6935L159.485 46.8135C159.255 41.0135 160.075 35.6035 164.545 31.4635C165.205 30.8535 166.585 31.0435 167.245 30.9335ZM162.105 37.0435L165.925 37.8735C165.605 36.3135 165.285 34.7835 164.925 32.8035L162.105 37.0435Z" fill="#0D1125"/>
<path d="M78.165 44.9535C78.105 40.4335 78.955 36.2435 81.965 32.6335C82.3844 32.0101 82.9774 31.5234 83.6706 31.2336C84.3638 30.9439 85.1268 30.8639 85.865 31.0035C86.755 36.2735 87.615 41.4035 88.495 46.6135H85.815C85.695 40.1335 83.135 37.8535 80.545 38.1735C79.645 40.6135 79.655 42.6735 80.635 46.6135H78.285L78.165 44.9535ZM83.505 32.7335L80.875 36.7935L84.485 37.7935L83.505 32.7335Z" fill="#0D1125"/>
<path d="M274.266 31.0835H276.526C276.426 34.2735 276.326 37.3535 276.226 40.4335C276.252 41.4102 276.192 42.3874 276.046 43.3535C275.466 46.0735 274.046 47.0935 271.286 46.9235C270.212 46.8767 269.2 46.4104 268.467 45.6249C267.734 44.8394 267.339 43.7976 267.366 42.7235C267.226 40.2235 267.276 37.7235 267.206 35.2035C267.206 33.8635 267.056 32.5235 266.966 31.0835H269.966C269.966 35.1435 269.876 39.1935 270.046 43.2335C270.11 43.7477 270.282 44.2426 270.551 44.6856C270.819 45.1285 271.179 45.5095 271.606 45.8035C272.846 46.5635 274.296 45.5035 274.536 43.7335C275.166 39.5322 275.075 35.2541 274.266 31.0835Z" fill="#0D1125"/>
<path d="M270.046 22.0235H265.976C266.106 18.6735 266.326 15.3735 266.326 12.0835C266.326 8.7935 266.066 5.4735 265.926 2.0835H270.086C269.34 8.70852 269.327 15.3955 270.046 22.0235Z" fill="#0D1125"/>
<path d="M42.5254 31.0936H45.2754C45.2754 35.3636 45.2054 39.5336 45.2754 43.7036C45.2553 44.0081 45.3015 44.3134 45.4108 44.5984C45.5202 44.8833 45.69 45.1412 45.9087 45.3541C46.1273 45.5671 46.3896 45.7301 46.6773 45.8318C46.9651 45.9336 47.2715 45.9717 47.5754 45.9436C48.9754 45.8836 49.5254 44.9436 49.7754 43.7336C50.3101 39.5087 50.2056 35.2273 49.4654 31.0336H51.8154C51.7054 34.8636 51.6254 38.6436 51.4754 42.4136C51.3554 45.3036 49.8954 46.8636 47.3754 46.9236C44.5154 46.9936 42.8654 45.5236 42.6454 42.5236C42.5054 40.5236 42.5554 38.6036 42.5454 36.6336C42.5354 34.6636 42.5254 32.9836 42.5254 31.0936Z" fill="#0D1125"/>
<path d="M178.105 46.7335H174.255C174.506 45.5565 174.677 44.3638 174.765 43.1635C174.835 40.0035 174.815 36.8435 174.765 33.6835C174.647 33.0887 174.431 32.5176 174.125 31.9935C173.526 32.1657 172.963 32.4471 172.465 32.8235C171.878 33.5667 171.363 34.3636 170.925 35.2035C170.875 34.7835 170.815 34.4835 170.805 34.2035C170.675 31.3035 170.965 31.0135 173.805 31.0435C175.545 31.0435 177.285 31.0435 179.025 31.0435C181.105 31.0435 181.295 31.2035 181.355 33.2235C181.355 33.8635 181.355 34.4935 181.355 35.2235C180.709 34.2035 179.969 33.246 179.145 32.3635C178.355 31.6535 177.435 31.7635 177.425 33.1335C177.425 37.0435 177.355 40.9635 177.425 44.8735C177.552 45.5255 177.782 46.1533 178.105 46.7335Z" fill="#0D1125"/>
<path d="M299.955 30.7935L299.515 35.1235L299.105 35.1835C298.935 34.7335 298.775 34.2735 298.595 33.8235C298.434 33.2673 298.087 32.7831 297.612 32.4519C297.137 32.1206 296.563 31.9624 295.985 32.0035C295.402 32.0182 294.843 32.2377 294.406 32.6236C293.969 33.0095 293.682 33.537 293.595 34.1135C292.984 37.0142 293.39 40.0371 294.745 42.6735C295.217 43.6204 295.925 44.4297 296.801 45.0235C297.677 45.6173 298.691 45.9754 299.745 46.0635V46.5435C299.209 46.6771 298.658 46.7443 298.105 46.7435C296.264 46.4692 294.562 45.599 293.262 44.2662C291.962 42.9335 291.134 41.2114 290.905 39.3635C290.785 38.6635 290.675 37.9635 290.605 37.2535C290.215 33.1435 292.175 31.0135 296.335 30.9835C297.415 30.9735 298.475 30.8735 299.955 30.7935Z" fill="#0D1125"/>
<path d="M252.016 30.6535C251.806 32.2735 251.606 33.7735 251.416 35.2735H251.076C250.946 34.7041 250.715 34.1623 250.396 33.6735C249.766 33.0235 248.946 32.1035 248.226 32.1135C247.741 32.1676 247.275 32.3284 246.86 32.5843C246.445 32.8402 246.092 33.1848 245.826 33.5935C243.466 38.0635 246.826 45.0935 251.826 46.4535C251.358 46.6295 250.865 46.7275 250.366 46.7435C248.375 46.5392 246.523 45.6313 245.143 44.183C243.763 42.7347 242.944 40.8413 242.836 38.8435C242.689 37.5142 242.689 36.1728 242.836 34.8435C242.928 33.8868 243.362 32.9955 244.058 32.3326C244.754 31.6696 245.666 31.2795 246.626 31.2335C247.486 31.1235 248.366 31.1435 249.236 31.0635C250.106 30.9835 250.756 30.8235 252.016 30.6535Z" fill="#0D1125"/>
<path d="M157.895 30.7335C157.775 32.1735 157.655 33.6635 157.525 35.1435L157.105 35.2035C156.885 34.6635 156.665 34.1135 156.435 33.5635C156.269 33.0689 155.94 32.6449 155.503 32.36C155.066 32.0751 154.545 31.946 154.025 31.9935C153.47 31.986 152.929 32.1712 152.495 32.5177C152.061 32.8641 151.761 33.3504 151.645 33.8935C151.172 35.5498 151.092 37.2936 151.412 38.9862C151.731 40.6788 152.441 42.2735 153.485 43.6435C154.485 44.8535 156.115 45.5035 157.485 46.4435C157.128 46.6278 156.736 46.7335 156.335 46.7535C155.218 46.6885 154.13 46.368 153.156 45.8167C152.181 45.2654 151.346 44.498 150.715 43.5735C149.748 42.2556 149.08 40.7422 148.759 39.1392C148.438 37.5363 148.47 35.8824 148.855 34.2935C149.027 33.4305 149.485 32.6505 150.154 32.0791C150.824 31.5077 151.666 31.1781 152.545 31.1435C154.245 30.9735 155.925 30.9135 157.895 30.7335Z" fill="#0D1125"/>
<path d="M234.416 30.7335C234.246 32.1835 234.056 33.7335 233.866 35.2235H233.486C233.361 34.5915 233.12 33.9881 232.776 33.4435C232.196 32.8135 231.396 32.0335 230.656 32.0135C230.217 32.0462 229.79 32.1751 229.407 32.3912C229.023 32.6072 228.691 32.905 228.436 33.2635C226.356 36.5135 228.436 43.6835 231.916 45.3635C232.717 45.6374 233.496 45.9717 234.246 46.3635C233.789 46.5543 233.308 46.6789 232.816 46.7335C228.506 46.4435 226.226 43.0435 225.526 39.9535C225.306 38.9469 225.176 37.923 225.136 36.8935C224.946 32.8135 226.716 31.0135 230.836 30.9835C231.906 30.9935 233.026 30.8635 234.416 30.7335Z" fill="#0D1125"/>
<path d="M217.566 43.3335C217.816 46.2735 217.466 46.7335 214.816 46.7335C212.916 46.7335 211.016 46.7335 209.096 46.7335C210.256 44.3335 210.466 34.7835 209.426 31.0935H212.526C212.526 35.4835 212.406 39.8035 212.526 44.0935C212.526 45.8435 214.426 46.3735 215.986 45.0935C216.563 44.5547 217.092 43.9657 217.566 43.3335Z" fill="#0D1125"/>
<path d="M187.536 35.5235C190.616 35.4435 190.806 35.0835 189.856 31.1035H192.856V46.6235H190.106C190.216 43.8435 190.366 41.0535 190.416 38.2535C190.4 37.916 190.303 37.5872 190.133 37.295C189.963 37.0028 189.726 36.7557 189.44 36.5743C189.155 36.393 188.831 36.2829 188.494 36.2532C188.157 36.2234 187.818 36.275 187.506 36.4035L187.536 35.5235Z" fill="#0D1125"/>
<path d="M187.536 35.5235V36.4035C187.269 36.4079 187.006 36.4724 186.768 36.5921C186.529 36.7118 186.32 36.8836 186.157 37.0949C185.994 37.3061 185.88 37.5514 185.824 37.8126C185.769 38.0737 185.773 38.344 185.836 38.6035C186.026 41.2335 186.016 43.8735 186.086 46.6035H183.346V31.0835H186.416C185.456 34.5035 185.626 35.1735 187.536 35.5235Z" fill="#0D1125"/>
<path d="M222.315 46.7336H219.885C219.885 44.0836 219.885 41.4936 219.885 38.9136C219.885 36.3336 219.685 33.8236 219.575 31.1436H222.335L222.315 46.7336Z" fill="#0D1125"/>
<path d="M113.816 46.7335H111.136V31.1235H113.816V46.7335Z" fill="#0D1125"/>
<path d="M91.2354 46.7335V31.0935H93.9254V46.7335H91.2354Z" fill="#0D1125"/>
<path d="M83.8955 20.1235C83.8546 20.6914 83.6073 21.2247 83.2001 21.6226C82.7929 22.0206 82.2542 22.2557 81.6855 22.2835C81.0853 22.2612 80.5157 22.0128 80.091 21.5881C79.6662 21.1634 79.4178 20.5938 79.3955 19.9935C79.4598 19.4232 79.7223 18.8936 80.1371 18.497C80.552 18.1005 81.0929 17.8621 81.6655 17.8235C82.2658 17.8341 82.8375 18.082 83.2554 18.5131C83.6734 18.9441 83.9035 19.5232 83.8955 20.1235Z" fill="#0D1125"/>
</g>
<defs>
<clipPath id="clip0_1993_4634">
<rect width="311" height="45.74" fill="white" transform="translate(0.81543 0.733521)"/>
</clipPath>
</defs>
</svg>
