<svg width="252" height="150" viewBox="0 0 252 150" fill="none" xmlns="http://www.w3.org/2000/svg">
<mask id="mask0_11_11980" style="mask-type:luminance" maskUnits="userSpaceOnUse" x="0" y="43" width="252" height="64">
<path d="M252 43.5H0V106.5H252V43.5Z" fill="white"/>
</mask>
<g mask="url(#mask0_11_11980)">
<path d="M50.2348 79.02C56.625 77.0401 59.6491 68.35 58.7551 65.4098C57.8612 62.4697 50.5175 56.9688 44.1272 58.9368C41.895 59.5928 39.8688 60.8177 38.2444 62.4934C39.4278 60.4159 40.0458 58.0601 40.0322 55.6647C40.0322 48.9307 32.7021 43.4653 29.6066 43.4653C26.5128 43.4653 19.1809 48.9307 19.1809 55.7001C19.1537 58.1396 19.7837 60.5409 21.0045 62.6475C20.9432 62.7054 20.8768 62.757 20.8053 62.8016C19.1639 60.9858 17.0662 59.6505 14.7335 58.9368C8.39089 56.9688 1.05888 62.4222 0.152871 65.4098C-0.753307 68.3973 2.28279 77.0401 8.67184 79.02C11.3127 79.8696 14.1511 79.8696 16.792 79.02V79.1266C13.7425 80.0556 11.1356 82.0751 9.46019 84.8054C5.93066 90.496 9.16733 99.0322 11.815 100.728C14.4627 102.422 23.5109 101.734 27.1121 96.0439C28.6939 93.5852 29.4227 90.6665 29.1826 87.7455H29.2422C29.0055 90.6661 29.7343 93.5835 31.3127 96.0439C34.8441 101.734 43.9757 102.398 46.6115 100.728C49.2472 99.056 52.4943 90.496 48.9646 84.8054C47.4509 82.3494 45.1829 80.4594 42.5045 79.423L42.622 79.1741C45.1216 79.8633 47.7659 79.8099 50.2348 79.02ZM36.855 74.1118H29.4533V81.5807H28.665V74.1118H21.2514V73.3175H28.665V65.8484H29.4533V73.3175H36.855V74.1118Z" fill="#131313"/>
<path d="M124.829 55.6513V50.1978H98.5405H93.1395V55.6513V69.7592V75.2128V90.0085V95.4495H98.5405H124.829V90.0085H98.5405V75.2128H122.734V69.7592H98.5405V55.6513H124.829Z" fill="#131313"/>
<path d="M176.877 60.9507C173.395 60.9713 169.998 62.046 167.13 64.0353C164.261 66.0247 162.053 68.8368 160.79 72.1068C160.613 72.5938 160.487 73.0985 160.413 73.6123H160.284V75.3077C160.284 75.8056 160.284 76.3154 160.284 76.8251V106.464H165.744V92.4626C168.816 95.2329 172.814 96.7313 176.935 96.6598C186.526 96.6598 193.01 88.1354 193.01 78.2716C193.01 68.4078 186.466 60.9507 176.877 60.9507ZM177.1 91.0637C170.216 91.0637 165.685 86.1555 165.685 78.8051C165.685 71.4547 169.722 66.7125 176.606 66.7125C183.49 66.7125 187.326 70.9329 187.326 78.2833C187.326 85.6337 183.996 91.0637 177.1 91.0637Z" fill="#131313"/>
<path d="M225.123 79.4693H227.476C228.101 69.7004 222.334 61.5913 212.768 60.951C204.847 60.4176 196.175 64.7092 195.763 79.4693C195.712 81.7398 196.117 83.9975 196.957 86.1057C197.794 88.214 199.049 90.1292 200.643 91.7359C202.235 93.3431 204.135 94.6065 206.228 95.4527C208.321 96.299 210.561 96.7093 212.814 96.66C219.533 96.66 224.723 92.4628 227.229 86.5588L222.417 84.0691C221.878 86.1437 220.65 87.9697 218.937 89.2425C217.224 90.5152 215.13 91.1582 213.003 91.0639C206.318 91.0639 201.871 86.4521 201.612 79.4693H225.147H225.123ZM202.024 74.8693C203.201 69.724 206.943 66.452 212.519 66.7009C218.687 66.9737 220.51 71.3246 220.97 74.8693H202.024Z" fill="#131313"/>
<path d="M251.988 62.1597C249.625 61.3841 247.156 60.9842 244.668 60.9741C241.515 61.1638 232.16 62.7287 232.054 73.6358C231.949 84.5428 232.054 95.0934 232.054 95.0934H238.021V75.4377C238.021 75.4377 237.573 67.3761 245.01 67.1389C246.945 66.9995 248.886 67.2576 250.718 67.8977L251.988 62.1597Z" fill="#131313"/>
<path d="M153.294 61.6978H138.879C138.879 61.6978 128.535 62.0771 128.559 71.1821C128.583 80.2872 138.244 80.5717 140.928 81.1763C143.609 81.781 149.388 82.2315 149.47 86.3216C149.552 90.4118 143.904 90.0798 143.904 90.0798H129.783V95.1652H145.08C145.08 95.1652 155.154 95.0835 155.154 86.2386C155.154 77.3945 145.164 76.4697 143.386 76.0904C141.61 75.711 134.796 75.3671 134.866 71.3482C134.937 67.3291 139.021 67.6965 139.021 67.6965L153.366 67.6136L153.294 61.6978Z" fill="#131313"/>
</g>
</svg>
