<svg width="130" height="146" viewBox="0 0 130 146" fill="none" xmlns="http://www.w3.org/2000/svg">
<path d="M114.646 57.212L112.259 77.4992C112.259 77.4992 112.271 77.4992 112.275 77.4992C114.842 76.92 117.392 78.5325 117.971 81.1033C118.55 83.6699 116.938 86.2198 114.367 86.799L111.863 87.3615C111.58 86.7823 111.284 86.2115 110.955 85.649C106.251 77.5617 103.926 68.3077 104.259 58.9578L105.021 37.3916C105.151 33.7041 103.859 30.1125 101.409 27.3542C98.9591 30.1125 97.6633 33.7041 97.7966 37.3916L98.5591 58.9578C98.8882 68.3077 96.5674 77.5617 91.8634 85.649C91.5342 86.2115 91.2384 86.7865 90.955 87.3615L88.4509 86.799C85.8843 86.2198 84.2718 83.6699 84.8468 81.1033C85.426 78.5367 87.9759 76.9242 90.5426 77.4992C90.5467 77.4992 90.5551 77.4992 90.5592 77.4992L88.1718 57.212C87.0385 47.5997 81.3177 39.129 72.8179 34.4958V103.59H88.7426C89.8551 109.607 93.0675 115.24 98.1591 119.307C99.5049 120.136 100.622 121.286 101.409 122.653C102.197 121.286 103.317 120.136 104.659 119.307C109.751 115.24 112.963 109.611 114.075 103.59H130V34.4958C121.5 39.1332 115.78 47.5997 114.646 57.212ZM77.5845 44.3873C80.8177 48.1622 82.851 52.8121 83.4385 57.7495L85.3135 73.5826C82.7094 74.8534 80.9469 77.1617 80.2719 79.7616H77.5845V44.3873ZM88.3093 98.8238H77.5845V84.5282H80.2677C80.4261 85.1365 80.6469 85.7407 80.9344 86.3282C82.2052 88.9281 84.5843 90.8073 87.4051 91.4448L89.2509 91.8614C88.6176 94.153 88.3093 96.4947 88.3093 98.828V98.8238ZM99.0299 113.657C96.2758 110.778 94.455 107.286 93.6133 103.59H99.0299V113.657ZM93.0717 98.8238C93.0717 96.8363 93.3467 94.8447 93.905 92.9072L94.38 93.0156C97.0966 93.6281 99.0299 96.0405 99.0299 98.828H93.0717V98.8238ZM101.409 92.0864C99.9966 90.3406 98.0382 89.0365 95.755 88.4448C95.83 88.3115 95.9008 88.174 95.98 88.0406C98.3424 83.9824 100.167 79.6366 101.409 75.1117C102.655 79.6366 104.48 83.9866 106.838 88.0406C106.917 88.174 106.988 88.3115 107.063 88.4448C104.776 89.0365 102.817 90.3406 101.409 92.0864ZM103.792 113.657V103.59H109.209C108.367 107.286 106.546 110.778 103.792 113.657ZM103.792 98.8238C103.792 96.0363 105.721 93.6239 108.442 93.0114L108.917 92.9031C109.476 94.8447 109.751 96.8363 109.751 98.8196H103.792V98.8238ZM125.234 98.8238H114.509C114.509 96.4905 114.2 94.1489 113.567 91.8572L115.413 91.4406C118.234 90.8073 120.617 88.924 121.884 86.324C122.171 85.7365 122.392 85.1324 122.55 84.524H125.234V98.8196V98.8238ZM125.234 79.7616H122.546C121.871 77.1575 120.109 74.8534 117.505 73.5826L119.38 57.7495C119.963 52.8163 122 48.1664 125.234 44.3873V79.7616Z" fill="#205DDA"/>
<path d="M0 73.1659H23.0204C23.0204 51.5788 31.5286 31.9792 45.37 17.5378L28.3703 0.538086C10.7623 19.6336 0 45.1414 0 73.1659Z" fill="#205DDA"/>
<path d="M23.0204 73.1675H0C0 101.029 10.6331 126.404 28.062 145.462L45.0575 128.466C31.3994 114.054 23.0204 94.5921 23.0204 73.1717V73.1675Z" fill="#FFCA0C"/>
</svg>
